<svg version="1.1" id="Layer_1" xmlns="http://www.w3.org/2000/svg" xmlns:xlink="http://www.w3.org/1999/xlink" x="0px" y="0px"
	 width="100%" viewBox="0 0 50 50" enable-background="new 0 0 50 50" xml:space="preserve">
<path fill="#000000" opacity="1.000000" stroke="none" 
	d="
M10.000000,51.000000 
	C7.006642,51.000000 4.013285,51.000000 1.014946,51.000004 
	C1.009964,34.376884 1.009964,17.753759 1.009964,1.065317 
	C17.586020,1.065317 34.172333,1.065317 50.879330,1.065317 
	C50.879330,17.548536 50.879330,34.098244 50.879330,51.000000 
	C38.314610,51.000000 25.625961,51.000000 12.292080,50.559235 
	C11.764633,45.642139 12.228251,41.139404 11.889198,36.697948 
	C11.624870,33.235355 13.016580,31.635738 15.938938,30.516109 
	C22.471863,28.013180 28.977514,25.436090 35.456764,22.797108 
	C39.706341,21.066267 43.890354,19.174450 49.224689,16.870594 
	C35.788044,11.613919 23.629578,6.857291 10.000000,1.525136 
	C10.000000,18.674658 10.000000,34.837330 10.000000,51.000000 
z"/>
<path fill="#3BE535" opacity="1.000000" stroke="none" 
	d="
M10.333333,51.000000 
	C10.000000,34.837330 10.000000,18.674658 10.000000,1.525136 
	C23.629578,6.857291 35.788044,11.613919 49.224689,16.870594 
	C43.890354,19.174450 39.706341,21.066267 35.456764,22.797108 
	C28.977514,25.436090 22.471863,28.013180 15.938938,30.516109 
	C13.016580,31.635738 11.624870,33.235355 11.889198,36.697948 
	C12.228251,41.139404 11.764633,45.642139 11.823421,50.559235 
	C11.555555,51.000000 11.111111,51.000000 10.333333,51.000000 
z"/>
</svg>