<svg version="1.1" id="Layer_1" xmlns="http://www.w3.org/2000/svg" xmlns:xlink="http://www.w3.org/1999/xlink" x="0px" y="0px"
	 width="100%" viewBox="0 0 50 50" enable-background="new 0 0 50 50" xml:space="preserve">
<path fill="#000000" opacity="1.000000" stroke="none" 
	d="
M25.237936,50.744743 
	C18.032797,51.000000 11.064302,50.924568 4.099144,51.043873 
	C1.877892,51.081921 0.877783,50.900005 0.912667,48.125404 
	C1.098261,33.363907 1.108261,18.597355 0.906559,3.836279 
	C0.867299,0.963163 2.007586,0.923851 4.137560,0.965683 
	C9.443856,1.069897 14.753572,1.000000 20.530956,1.000000 
	C22.796789,2.589074 22.336166,4.166936 20.995653,5.761476 
	C19.799250,7.184596 18.941120,8.782128 18.733370,10.656610 
	C18.378708,13.856622 19.105982,16.685907 22.094042,18.344124 
	C24.924006,19.914604 27.893730,19.850397 30.548380,17.926712 
	C33.304661,15.929380 33.726490,13.040093 33.016258,9.898568 
	C32.681221,8.416618 31.915356,7.134045 31.022085,5.925779 
	C30.002100,4.546114 29.038567,3.166898 30.755383,1.251108 
	C36.806046,1.000000 42.614174,1.087977 48.416969,0.950638 
	C50.357750,0.904704 51.093342,1.085557 51.071945,3.395415 
	C50.932110,18.489840 50.919617,33.587044 51.080143,48.681057 
	C51.106503,51.159664 50.123005,51.056896 48.341045,51.034504 
	C41.540756,50.949047 34.738750,51.000000 27.468693,51.000000 
	C25.291624,47.170090 26.886724,43.206776 26.542902,39.314735 
	C26.295637,36.515713 26.754538,33.677101 25.885738,30.871496 
	C25.533499,35.638851 25.209118,40.410259 25.862633,45.193729 
	C26.110010,47.004421 26.612263,48.795914 25.237936,50.744743 
z"/>
<path fill="#64DD17" opacity="1.000000" stroke="none" 
	d="
M30.545891,1.000000 
	C30.174328,3.541077 32.743320,3.969095 33.810509,5.196823 
	C36.820629,8.659757 36.711113,12.817685 35.543003,16.440065 
	C34.626076,19.283495 32.106239,21.857485 28.251648,22.042177 
	C23.623123,22.263952 19.414454,21.940144 16.836237,17.291752 
	C14.950152,13.891243 15.862096,6.607263 18.880669,4.142231 
	C19.907284,3.303875 20.967640,2.580954 21.349289,1.230378 
	C24.030594,1.000000 27.061186,1.000000 30.545891,1.000000 
z"/>
<path fill="#64DD17" opacity="1.000000" stroke="none" 
	d="
M25.333332,51.000000 
	C21.764868,42.998394 23.362936,34.605286 22.993095,26.370485 
	C22.902754,24.358965 23.037504,22.936743 25.770924,22.904705 
	C28.509441,22.872608 29.102922,23.939713 29.042801,26.411831 
	C28.901926,32.204384 28.910301,38.004627 29.037148,43.797840 
	C29.096319,46.500267 27.842703,48.491657 26.649193,50.722775 
	C26.555555,51.000000 26.111111,51.000000 25.333332,51.000000 
z"/>
</svg>